<?xml version="1.0" encoding="UTF-8" standalone="no"?>
<!DOCTYPE svg PUBLIC "-//W3C//DTD SVG 1.1//EN" "http://www.w3.org/Graphics/SVG/1.1/DTD/svg11.dtd">
<svg xmlns="http://www.w3.org/2000/svg" version="1.1" viewBox="0.00 0.00 600.00 600.00">
<g stroke-width="2.00" fill="none" stroke-linecap="butt">
<path stroke="#121312" vector-effect="non-scaling-stroke" d="
  M 596.41 301.86
  L 586.89 318.52"
/>
<path stroke="#818181" vector-effect="non-scaling-stroke" d="
  M 150.96 42.87
  C 102.01 127.29 53.31 211.81 4.44 296.25
  Q 3.25 298.31 4.68 300.79
  Q 77.51 427.04 150.74 553.84
  Q 151.48 555.13 152.97 555.13
  L 446.52 555.13
  A 2.50 2.49 -75.0 0 0 448.68 553.88
  L 595.28 299.91
  A 2.77 2.75 -45.2 0 0 595.28 297.16
  L 448.53 43.00
  A 2.30 2.29 -14.9 0 0 446.54 41.85
  L 152.72 41.86
  A 2.04 2.04 0.0 0 0 150.96 42.87"
/>
<path stroke="#919191" vector-effect="non-scaling-stroke" d="
  M 167.73 244.39
  A 0.39 0.39 0.0 0 1 168.12 244.00
  L 224.86 244.00
  A 0.39 0.39 0.0 0 0 225.25 243.61
  L 225.25 202.12
  A 0.39 0.39 0.0 0 0 224.86 201.73
  L 113.93 201.73
  A 0.39 0.39 0.0 0 0 113.54 202.12
  L 113.54 380.61
  A 0.39 0.39 0.0 0 0 113.93 381.00
  L 229.06 381.00
  A 0.39 0.39 0.0 0 0 229.45 380.61
  L 229.45 339.08
  A 0.39 0.39 0.0 0 0 229.06 338.69
  L 168.12 338.67
  A 0.39 0.39 0.0 0 1 167.73 338.28
  L 167.73 312.85
  A 0.39 0.39 0.0 0 1 168.12 312.46
  L 221.56 312.46
  A 0.39 0.39 0.0 0 0 221.95 312.07
  L 221.95 270.39
  A 0.39 0.39 0.0 0 0 221.56 270.00
  L 168.12 270.00
  A 0.39 0.39 0.0 0 1 167.73 269.61
  L 167.73 244.39"
/>
<path stroke="#919191" vector-effect="non-scaling-stroke" d="
  M 364.65 325.09
  C 363.24 315.54 362.04 305.80 359.80 296.93
  Q 347.86 249.61 335.91 202.25
  Q 335.78 201.74 335.25 201.74
  L 255.30 201.73
  A 0.47 0.47 0.0 0 0 254.83 202.20
  L 254.83 380.54
  A 0.46 0.46 0.0 0 0 255.29 381.00
  L 301.99 381.00
  A 0.27 0.27 0.0 0 0 302.26 380.73
  Q 302.27 341.52 302.25 302.25
  C 302.24 282.95 301.35 263.64 300.61 244.38
  A 0.39 0.39 0.0 0 1 301.04 243.98
  L 301.34 244.01
  A 0.92 0.91 -1.2 0 1 302.14 244.77
  Q 305.54 265.65 308.50 277.00
  Q 322.01 328.78 335.32 380.48
  A 0.70 0.69 82.3 0 0 335.99 381.00
  L 386.00 381.00
  Q 386.34 381.00 386.42 380.67
  Q 400.09 324.76 413.67 268.99
  Q 415.80 260.23 418.66 244.36
  Q 418.74 243.93 419.17 243.98
  L 419.47 244.01
  A 0.74 0.74 0.0 0 1 420.12 244.77
  C 418.30 289.77 418.98 334.79 419.01 380.02
  Q 419.01 381.00 419.98 381.00
  L 471.77 381.00
  Q 472.29 381.00 472.29 380.48
  L 472.29 202.01
  A 0.28 0.27 -0.0 0 0 472.01 201.74
  L 392.77 201.73
  Q 392.52 201.73 392.46 201.98
  Q 381.16 249.77 369.88 297.60
  Q 367.63 307.14 365.30 325.08
  A 0.33 0.33 0.0 0 1 364.65 325.09"
/>
</g>
<path fill="#020302" d="
  M 596.41 301.86
  L 586.89 318.52
  L 449.70 556.59
  Q 449.46 557.00 448.99 557.00
  L 151.49 557.00
  A 2.56 2.55 74.9 0 1 149.28 555.72
  L 1.34 299.45
  A 2.02 2.02 0.0 0 1 1.34 297.45
  Q 18.62 267.46 36.04 237.53
  C 56.07 203.10 75.68 168.43 95.72 134.01
  C 110.55 108.55 125.17 82.96 139.93 57.46
  Q 145.46 47.89 146.93 45.17
  Q 148.47 42.32 150.26 40.34
  A 1.02 1.00 20.3 0 1 151.02 40.00
  L 449.01 40.00
  A 0.94 0.94 0.0 0 1 449.88 40.58
  C 451.16 43.62 453.27 46.75 454.56 48.99
  Q 516.67 156.61 578.78 264.22
  Q 589.71 283.16 595.05 292.19
  C 596.80 295.15 599.62 298.82 596.41 301.86
  Z
  M 150.96 42.87
  C 102.01 127.29 53.31 211.81 4.44 296.25
  Q 3.25 298.31 4.68 300.79
  Q 77.51 427.04 150.74 553.84
  Q 151.48 555.13 152.97 555.13
  L 446.52 555.13
  A 2.50 2.49 -75.0 0 0 448.68 553.88
  L 595.28 299.91
  A 2.77 2.75 -45.2 0 0 595.28 297.16
  L 448.53 43.00
  A 2.30 2.29 -14.9 0 0 446.54 41.85
  L 152.72 41.86
  A 2.04 2.04 0.0 0 0 150.96 42.87
  Z"
/>
<path fill="#ffffff" d="
  M 4.44 296.25
  C 53.31 211.81 102.01 127.29 150.96 42.87
  A 2.04 2.04 0.0 0 1 152.72 41.86
  L 446.54 41.85
  A 2.30 2.29 -14.9 0 1 448.53 43.00
  L 595.28 297.16
  A 2.77 2.75 -45.2 0 1 595.28 299.91
  L 448.68 553.88
  A 2.50 2.49 -75.0 0 1 446.52 555.13
  L 152.97 555.13
  Q 151.48 555.13 150.74 553.84
  Q 77.51 427.04 4.68 300.79
  Q 3.25 298.31 4.44 296.25
  Z
  M 167.73 244.39
  A 0.39 0.39 0.0 0 1 168.12 244.00
  L 224.86 244.00
  A 0.39 0.39 0.0 0 0 225.25 243.61
  L 225.25 202.12
  A 0.39 0.39 0.0 0 0 224.86 201.73
  L 113.93 201.73
  A 0.39 0.39 0.0 0 0 113.54 202.12
  L 113.54 380.61
  A 0.39 0.39 0.0 0 0 113.93 381.00
  L 229.06 381.00
  A 0.39 0.39 0.0 0 0 229.45 380.61
  L 229.45 339.08
  A 0.39 0.39 0.0 0 0 229.06 338.69
  L 168.12 338.67
  A 0.39 0.39 0.0 0 1 167.73 338.28
  L 167.73 312.85
  A 0.39 0.39 0.0 0 1 168.12 312.46
  L 221.56 312.46
  A 0.39 0.39 0.0 0 0 221.95 312.07
  L 221.95 270.39
  A 0.39 0.39 0.0 0 0 221.56 270.00
  L 168.12 270.00
  A 0.39 0.39 0.0 0 1 167.73 269.61
  L 167.73 244.39
  Z
  M 364.65 325.09
  C 363.24 315.54 362.04 305.80 359.80 296.93
  Q 347.86 249.61 335.91 202.25
  Q 335.78 201.74 335.25 201.74
  L 255.30 201.73
  A 0.47 0.47 0.0 0 0 254.83 202.20
  L 254.83 380.54
  A 0.46 0.46 0.0 0 0 255.29 381.00
  L 301.99 381.00
  A 0.27 0.27 0.0 0 0 302.26 380.73
  Q 302.27 341.52 302.25 302.25
  C 302.24 282.95 301.35 263.64 300.61 244.38
  A 0.39 0.39 0.0 0 1 301.04 243.98
  L 301.34 244.01
  A 0.92 0.91 -1.2 0 1 302.14 244.77
  Q 305.54 265.65 308.50 277.00
  Q 322.01 328.78 335.32 380.48
  A 0.70 0.69 82.3 0 0 335.99 381.00
  L 386.00 381.00
  Q 386.34 381.00 386.42 380.67
  Q 400.09 324.76 413.67 268.99
  Q 415.80 260.23 418.66 244.36
  Q 418.74 243.93 419.17 243.98
  L 419.47 244.01
  A 0.74 0.74 0.0 0 1 420.12 244.77
  C 418.30 289.77 418.98 334.79 419.01 380.02
  Q 419.01 381.00 419.98 381.00
  L 471.77 381.00
  Q 472.29 381.00 472.29 380.48
  L 472.29 202.01
  A 0.28 0.27 -0.0 0 0 472.01 201.74
  L 392.77 201.73
  Q 392.52 201.73 392.46 201.98
  Q 381.16 249.77 369.88 297.60
  Q 367.63 307.14 365.30 325.08
  A 0.33 0.33 0.0 0 1 364.65 325.09
  Z"
/>
<path fill="#222222" d="
  M 167.73 244.39
  L 167.73 269.61
  A 0.39 0.39 0.0 0 0 168.12 270.00
  L 221.56 270.00
  A 0.39 0.39 0.0 0 1 221.95 270.39
  L 221.95 312.07
  A 0.39 0.39 0.0 0 1 221.56 312.46
  L 168.12 312.46
  A 0.39 0.39 0.0 0 0 167.73 312.85
  L 167.73 338.28
  A 0.39 0.39 0.0 0 0 168.12 338.67
  L 229.06 338.69
  A 0.39 0.39 0.0 0 1 229.45 339.08
  L 229.45 380.61
  A 0.39 0.39 0.0 0 1 229.06 381.00
  L 113.93 381.00
  A 0.39 0.39 0.0 0 1 113.54 380.61
  L 113.54 202.12
  A 0.39 0.39 0.0 0 1 113.93 201.73
  L 224.86 201.73
  A 0.39 0.39 0.0 0 1 225.25 202.12
  L 225.25 243.61
  A 0.39 0.39 0.0 0 1 224.86 244.00
  L 168.12 244.00
  A 0.39 0.39 0.0 0 0 167.73 244.39
  Z"
/>
<path fill="#222222" d="
  M 365.30 325.08
  Q 367.63 307.14 369.88 297.60
  Q 381.16 249.77 392.46 201.98
  Q 392.52 201.73 392.77 201.73
  L 472.01 201.74
  A 0.28 0.27 0.0 0 1 472.29 202.01
  L 472.29 380.48
  Q 472.29 381.00 471.77 381.00
  L 419.98 381.00
  Q 419.01 381.00 419.01 380.02
  C 418.98 334.79 418.30 289.77 420.12 244.77
  A 0.74 0.74 0.0 0 0 419.47 244.01
  L 419.17 243.98
  Q 418.74 243.93 418.66 244.36
  Q 415.80 260.23 413.67 268.99
  Q 400.09 324.76 386.42 380.67
  Q 386.34 381.00 386.00 381.00
  L 335.99 381.00
  A 0.70 0.69 82.3 0 1 335.32 380.48
  Q 322.01 328.78 308.50 277.00
  Q 305.54 265.65 302.14 244.77
  A 0.92 0.91 -1.2 0 0 301.34 244.01
  L 301.04 243.98
  A 0.39 0.39 0.0 0 0 300.61 244.38
  C 301.35 263.64 302.24 282.95 302.25 302.25
  Q 302.27 341.52 302.26 380.73
  A 0.27 0.27 0.0 0 1 301.99 381.00
  L 255.29 381.00
  A 0.46 0.46 0.0 0 1 254.83 380.54
  L 254.83 202.20
  A 0.47 0.47 0.0 0 1 255.30 201.73
  L 335.25 201.74
  Q 335.78 201.74 335.91 202.25
  Q 347.86 249.61 359.80 296.93
  C 362.04 305.80 363.24 315.54 364.65 325.09
  A 0.33 0.33 0.0 0 0 365.30 325.08
  Z"
/>
<path fill="#222222" d="
  M 596.41 301.86
  Q 595.69 304.18 594.40 306.23
  C 591.85 310.30 589.53 314.49 586.89 318.52
  L 596.41 301.86
  Z"
/>
</svg>
